<?xml version="1.0" standalone="no"?>
<!DOCTYPE svg PUBLIC "-//W3C//DTD SVG 20010904//EN"
 "http://www.w3.org/TR/2001/REC-SVG-20010904/DTD/svg10.dtd">
<svg version="1.0" xmlns="http://www.w3.org/2000/svg"
 width="744.000000pt" height="595.000000pt" viewBox="0 0 744.000000 595.000000"
 preserveAspectRatio="xMidYMid meet">

<g transform="translate(0.000000,595.000000) scale(0.100000,-0.100000)"
fill="#000000" stroke="none">
<path d="M0 2970 l0 -2970 3720 0 3720 0 0 2970 0 2970 -3720 0 -3720 0 0
-2970z m2949 1344 c128 -220 143 -256 95 -240 -14 5 -260 404 -282 458 -2 4
10 8 26 8 28 0 36 -12 161 -226z m1473 -179 c-2 -15 0 -25 7 -25 17 0 -32 -90
-237 -437 -104 -175 -233 -396 -286 -490 -54 -95 -101 -173 -105 -173 -12 0
-31 23 -31 38 0 8 56 107 124 220 68 114 192 325 275 470 138 239 249 422 256
422 1 0 0 -11 -3 -25z m-1150 -142 c9 -10 92 -151 185 -313 94 -162 184 -317
200 -344 26 -41 29 -53 20 -73 -5 -12 -13 -23 -16 -23 -4 0 -24 30 -45 68 -21
37 -115 196 -209 355 l-171 287 -104 0 -104 0 38 -67 c58 -105 318 -548 439
-749 l110 -181 26 28 c50 54 128 51 178 -7 17 -19 31 -29 31 -23 0 7 74 137
164 288 90 152 225 382 301 511 141 243 174 294 131 200 -14 -30 -23 -57 -20
-60 7 -7 51 47 67 83 6 15 16 27 20 27 5 0 6 -3 4 -7 -2 -5 -62 -105 -132
-223 -70 -118 -200 -341 -287 -494 -169 -294 -236 -408 -247 -416 -4 -3 -24
-33 -45 -68 -21 -34 -45 -69 -53 -78 -12 -12 -16 -39 -17 -117 l-1 -102 48 -3
47 -3 0 -90 0 -89 -40 0 -40 0 0 -235 0 -235 40 0 40 0 0 -85 c0 -82 -1 -86
-25 -95 -24 -9 -25 -12 -25 -105 0 -70 -3 -95 -13 -95 -6 0 -37 41 -67 92 -30
50 -59 91 -65 92 -6 1 -12 -40 -16 -94 l-5 -95 -2 113 c-1 69 2 112 8 112 6 0
10 33 10 80 l0 80 35 0 35 0 0 235 0 235 -35 0 -35 0 0 90 0 90 45 0 45 0 0
98 c0 95 -1 101 -31 142 -17 24 -32 48 -33 55 -1 6 -12 24 -24 39 -12 16 -22
38 -23 50 0 11 -3 15 -6 8 -6 -15 -54 60 -215 343 -66 116 -194 334 -284 486
-90 152 -164 279 -164 282 0 6 80 11 236 15 66 2 84 -1 96 -15z m954 -10 c-24
-63 -376 -670 -503 -866 l-64 -99 -41 64 c-125 193 -468 778 -468 798 0 6 11
10 24 10 20 0 43 -32 153 -217 149 -249 234 -397 288 -500 33 -64 55 -90 55
-65 0 17 473 828 513 880 5 6 18 12 29 12 15 0 18 -5 14 -17z m-1971 -2310
c-16 -3 -33 -10 -37 -16 -4 -7 -9 -55 -10 -107 l-2 -95 -5 105 -6 105 -35 6
c-22 4 -6 6 45 6 44 0 67 -2 50 -4z m315 -2 l-65 -6 0 -45 0 -45 45 -6 45 -6
-48 -1 -48 -2 3 -42 3 -43 65 -6 65 -6 -72 -1 -73 -2 0 110 0 110 73 -2 72 -1
-65 -6z m415 -3 c14 -6 25 -15 25 -19 0 -4 -14 -1 -30 8 -63 31 -135 -16 -135
-88 0 -80 88 -120 155 -71 19 14 27 17 24 8 -6 -16 -63 -46 -89 -46 -30 0 -75
30 -91 62 -47 91 46 189 141 146z m340 -93 l70 0 6 55 c4 38 6 19 6 -60 0 -73
-2 -97 -6 -65 l-6 50 -70 0 -70 0 -6 -50 c-4 -32 -6 -8 -6 65 0 79 2 98 6 60
l6 -55 70 0z m815 0 c23 -58 40 -108 37 -111 -3 -3 -11 7 -19 23 -12 25 -19
28 -70 31 -55 3 -58 2 -73 -28 -33 -63 -25 -20 15 84 24 60 47 106 55 106 7 0
31 -46 55 -105z m297 60 c15 -25 31 -45 35 -45 3 0 19 20 35 45 15 25 32 45
36 45 9 0 5 -8 -35 -67 -22 -32 -28 -53 -28 -92 0 -28 -4 -51 -10 -51 -5 0
-10 23 -10 51 0 39 -6 60 -28 92 -41 60 -44 67 -34 67 6 0 23 -20 39 -45z
m476 -53 c35 -94 52 -163 22 -94 -14 31 -16 32 -74 32 -59 0 -61 -1 -75 -32
-8 -18 -15 -27 -15 -20 -1 12 62 182 75 203 14 24 32 1 67 -89z m263 9 c5 -23
8 -22 62 32 66 65 96 78 37 16 -24 -25 -35 -43 -28 -46 32 -12 64 -48 73 -85
6 -22 9 -42 6 -45 -2 -3 -10 13 -16 35 -11 42 -50 82 -80 82 -26 0 -53 -36
-61 -83 -4 -27 -6 -2 -6 73 0 63 2 99 4 80 2 -19 6 -46 9 -59z"/>
<path d="M2780 4522 c0 -17 63 -97 67 -85 6 18 -36 93 -52 93 -8 0 -15 -4 -15
-8z"/>
<path d="M3670 2933 c0 -18 6 -23 26 -23 22 0 25 2 14 15 -10 13 -9 15 12 15
30 0 48 -17 48 -47 0 -34 -35 -49 -67 -28 -28 19 -42 13 -23 -10 17 -21 73
-19 93 3 21 23 22 51 1 80 -13 19 -23 22 -60 20 -38 -3 -44 -6 -44 -25z"/>
<path d="M3601 2914 c0 -11 3 -14 6 -6 3 7 2 16 -1 19 -3 4 -6 -2 -5 -13z"/>
<path d="M3690 2776 c0 -2 7 -6 15 -10 8 -3 15 -1 15 4 0 6 -7 10 -15 10 -8 0
-15 -2 -15 -4z"/>
<path d="M3735 2770 c4 -6 11 -8 16 -5 14 9 11 15 -7 15 -8 0 -12 -5 -9 -10z"/>
<path d="M3670 2405 l0 -65 70 0 70 0 0 65 0 65 -70 0 -70 0 0 -65z"/>
<path d="M3720 2080 c0 -147 4 -230 10 -230 6 0 10 83 10 230 0 147 -4 230
-10 230 -6 0 -10 -83 -10 -230z"/>
<path d="M3670 1755 l0 -65 70 0 70 0 0 65 0 65 -70 0 -70 0 0 -65z"/>
<path d="M3660 1654 c0 -12 95 -164 102 -164 5 0 8 38 8 85 l0 85 -55 0 c-30
0 -55 -3 -55 -6z"/>
<path d="M4065 1624 c-9 -22 -19 -51 -22 -66 -5 -27 -4 -28 39 -28 25 0 47 2
50 6 6 6 -29 104 -42 118 -5 5 -16 -8 -25 -30z"/>
<path d="M4854 1649 c-12 -16 -44 -95 -44 -109 0 -6 23 -10 51 -10 49 0 51 1
45 24 -3 13 -14 43 -24 66 -14 33 -20 39 -28 29z"/>
</g>
</svg>
